<svg height="512pt" viewBox="0 0 512 512.00043" width="512pt" xmlns="http://www.w3.org/2000/svg"><path d="m409.539062 460.800781c-5.121093 0-11.179687-.171875-17.835937-.769531-34.046875-3.070312-82.6875-16.46875-91.5625-67.496094 20.75-.792968 39.003906-13.941406 46.335937-33.367187 6.691407 7.140625 15.273438 12.230469 24.746094 14.675781 4.15625 1.058594 8.425782 1.605469 12.714844 1.621094 12.722656.007812 24.988281-4.738282 34.390625-13.308594 2.484375-2.21875 4.742187-4.675781 6.742187-7.339844 5.335938 2.113282 10.988282 3.324219 16.722657 3.582032 36.011719 59.734374 1.878906 102.402343-32.253907 102.402343zm0 0" fill="#7facfa"/><path d="m391.703125 460.03125c-34.046875-3.070312-82.6875-16.46875-91.5625-67.496094 15.636719-.472656 30.179687-8.121094 39.425781-20.738281 5.957032 2.441406 12.335938 3.6875 18.773438 3.667969 4.34375-.011719 8.671875-.558594 12.882812-1.621094 11.296875-2.96875 21.25-9.675781 28.246094-19.027344 5.339844 2.113282 10.992188 3.324219 16.726562 3.582032.765626 1.28125 1.449219 2.476562 2.132813 3.757812 29.953125 53.246094 3.839844 92.160156-26.625 97.875zm0 0" fill="#a4c2f7"/><path d="m491.457031 288.851562c2.230469 5.863282 3.386719 12.078126 3.414063 18.347657-.019532 28.269531-22.929688 51.179687-51.199219 51.199219-4.296875.007812-8.574219-.566407-12.714844-1.707032-2.015625-.441406-3.984375-1.070312-5.886719-1.875-.867187 1.195313-1.808593 2.335938-2.816406 3.414063-9.714844 10.964843-23.664062 17.242187-38.316406 17.234375-4.289062-.015625-8.558594-.5625-12.714844-1.621094-9.472656-2.445312-18.054687-7.535156-24.746094-14.675781-7.523437 19.949219-26.550781 33.210937-47.871093 33.367187-4.296875-.007812-8.570313-.582031-12.714844-1.707031-8.523437-2.152344-16.339844-6.476563-22.699219-12.546875-1.027344 4.21875-2.515625 8.3125-4.4375 12.203125-8.832031 16.960937-26.355468 27.613281-45.480468 27.648437-4.292969.023438-8.566407-.523437-12.714844-1.621093-14.128906-3.617188-26.050782-13.082031-32.769532-26.027344-4.632812 1.332031-9.429687 2.019531-14.25 2.050781-3.644531-.003906-7.277343-.40625-10.835937-1.195312-.703125-.089844-1.390625-.261719-2.050781-.511719-16.488282-4.304687-29.757813-16.523437-35.414063-32.597656-.9375.085937-1.875.167969-2.898437.167969-18.308594.027343-35.230469-9.738282-44.375-25.597657-23.84375-.800781-43.976563-17.960937-48.542969-41.375-4.570313-23.414062 7.636719-46.882812 29.429687-56.589843-3.15625-6.726563-4.789062-14.070313-4.78125-21.503907.023438-21.972656 14.070313-41.476562 34.902344-48.46875v-.085937c5.253906-1.753906 10.757813-2.648438 16.300782-2.644532 2.855468.007813 5.710937.238282 8.53125.683594v-.683594c.03125-23.316406 15.820312-43.667968 38.402343-49.492187 3.640625-1.015625 7.398438-1.5625 11.175781-1.621094.539063-.070312 1.082032-.101562 1.621094-.085937 7.433594-.007813 14.777344 1.621094 21.503906 4.777344 6.378907-14.234376 18.871094-24.8125 33.964844-28.757813 4.183594-1.0625 8.484375-1.605469 12.800782-1.621094 5.816406.027344 11.585937 1.039063 17.066406 2.988281v4.523438c.003906 6.269531-1.738282 12.414062-5.035156 17.75l-70.570313 115.625c-1.535156 2.707031-1.472656 6.035156.160156 8.679688 1.632813 2.648437 4.582031 4.195312 7.691407 4.035156h186.707031c3.109375.160156 6.054687-1.386719 7.691406-4.035156 1.632813-2.644532 1.695313-5.972657.160156-8.679688l-70.570312-115.625c-3.296875-5.335938-5.042969-11.480469-5.035157-17.75v-21.589844c1.363282-.511718 2.816407-.9375 4.265626-1.367187 4.183593-1.0625 8.484374-1.605469 12.800781-1.621094 21.707031.148437 41.007812 13.855469 48.296875 34.304687 4.789062-3.242187 10.101562-5.640624 15.703125-7.082031 4.183593-1.0625 8.484375-1.609375 12.800781-1.621093 21.738281-.027344 41.113281 13.699218 48.296875 34.21875.855469-.085938 1.878906-.085938 2.902344-.085938 28.269531.023438 51.179687 22.933594 51.199219 51.199219 0 1.792969-.085938 3.585937-.253907 5.375 5.746094 8.488281 8.808594 18.507812 8.789063 28.757812 0 1.425781-.085938 2.851563-.257813 4.269531 20.816407 18.363282 23.199219 49.972657 5.375 71.25zm0 0" fill="#cad9fc"/><path d="m465.859375 288.851562c2.226563 5.863282 3.382813 12.078126 3.414063 18.347657.003906 23.304687-15.753907 43.660156-38.316407 49.492187-2.847656.777344-5.761719 1.289063-8.703125 1.539063-1.367187.085937-2.730468.167969-4.183594.167969-6.371093.007812-12.6875-1.207032-18.601562-3.582032-6.996094 9.351563-16.949219 16.058594-28.246094 19.027344-4.210937 1.0625-8.539062 1.609375-12.882812 1.621094-14.183594-.125-27.703125-6.007813-37.460938-16.296875-5.796875 15.628906-18.859375 27.449219-34.988281 31.660156-8.902344 2.386719-18.292969 2.265625-27.136719-.34375-7.9375-2.296875-15.199218-6.484375-21.160156-12.203125-4.277344 18.640625-18.542969 33.363281-37.035156 38.230469-14.128906-3.617188-26.050782-13.082031-32.769532-26.027344-4.632812 1.332031-9.429687 2.019531-14.25 2.050781-3.644531-.003906-7.277343-.40625-10.835937-1.195312-.171875-.257813-.34375-.597656-.515625-.855469-.5.15625-1.015625.269531-1.535156.34375-16.488282-4.304687-29.757813-16.523437-35.414063-32.597656-.9375.085937-1.875.167969-2.898437.167969-18.308594.027343-35.230469-9.738282-44.375-25.597657-23.84375-.800781-43.976563-17.960937-48.542969-41.375-4.570313-23.414062 7.636719-46.882812 29.429687-56.589843-3.15625-6.726563-4.789062-14.070313-4.78125-21.503907.023438-21.972656 14.070313-41.476562 34.902344-48.46875v-.085937c5.253906-1.753906 10.757813-2.648438 16.300782-2.644532 2.855468.007813 5.710937.238282 8.53125.683594v-.683594c.03125-23.316406 15.820312-43.667968 38.402343-49.492187 2.996094.726563 5.910157 1.757813 8.703125 3.070313.703125-1.625 1.53125-3.191407 2.472656-4.691407.539063-.070312 1.082032-.101562 1.621094-.085937 7.433594-.007813 14.777344 1.621094 21.503906 4.777344 6.378907-14.234376 18.871094-24.8125 33.964844-28.757813 1.449219.429687 24.234375.855469 25.597656 1.367187v4.523438c.007813 6.269531-1.734374 12.414062-5.03125 17.75l-70.574218 115.625c-1.535156 2.707031-1.472656 6.035156.164062 8.679688 1.632813 2.648437 4.582032 4.195312 7.6875 4.035156h165.378906c3.105469.160156 6.054688-1.386719 7.6875-4.035156 1.632813-2.644532 1.695313-5.972657.160157-8.679688l-70.570313-115.625c-3.296875-5.335938-5.039062-11.480469-5.035156-17.75v-21.589844c5.480469-1.949218 11.25-2.960937 17.066406-2.988281 4.320313.015625 8.617188.558594 12.800782 1.621094 16.535156 4.308593 29.84375 16.5625 35.5 32.683593 6.53125-4.417968 14.019531-7.226562 21.84375-8.191406 2.203124-.347656 4.429687-.519531 6.65625-.511718 4.316406.011718 8.617187.558593 12.800781 1.621093 16.523437 4.273438 29.835937 16.496094 35.5 32.597657.851562-.085938 1.875-.085938 2.898437-.085938 28.269532.023438 51.179688 22.933594 51.203125 51.199219 0 1.792969-.085937 3.585937-.257812 5.375 5.746093 8.488281 8.808593 18.507812 8.789062 28.757812 0 1.425781-.085937 2.851563-.253906 4.269531 20.8125 18.363282 23.199219 49.972657 5.375 71.25zm0 0" fill="#e8edfc"/><path d="m221.804688 8.535156h68.265624c9.425782 0 17.070313 7.640625 17.070313 17.066406 0 9.425782-7.644531 17.066407-17.070313 17.066407h-68.265624c-9.425782 0-17.066407-7.640625-17.066407-17.066407 0-9.425781 7.640625-17.066406 17.066407-17.066406zm0 0" fill="#e8edfc"/><path d="m349.292969 238.933594h-186.707031c-3.109376.160156-6.058594-1.386719-7.691407-4.035156-1.632812-2.644532-1.695312-5.972657-.160156-8.679688l70.570313-115.625c3.296874-5.335938 5.039062-11.480469 5.035156-17.75v-50.175781h51.199218v50.175781c-.007812 6.269531 1.738282 12.414062 5.035157 17.75l70.570312 115.625c1.535157 2.707031 1.472657 6.035156-.160156 8.679688-1.636719 2.648437-4.582031 4.195312-7.691406 4.035156zm0 0" fill="#cad9fc"/><path d="m323.695312 238.933594h-161.109374c-3.109376.160156-6.058594-1.386719-7.691407-4.035156-1.632812-2.644532-1.695312-5.972657-.160156-8.679688l70.570313-115.625c3.296874-5.335938 5.039062-11.480469 5.035156-17.75v-50.175781h25.597656v50.175781c-.003906 6.269531 1.738281 12.414062 5.035156 17.75l70.570313 115.625c1.535156 2.707031 1.472656 6.035156-.160157 8.679688-1.632812 2.648437-4.582031 4.195312-7.6875 4.035156zm0 0" fill="#e8edfc"/><path d="m349.292969 238.933594h-186.707031c-3.109376.160156-6.058594-1.386719-7.691407-4.035156-1.632812-2.644532-1.695312-5.972657-.160156-8.679688l36.863281-60.332031.171875-.339844.167969.085937 3.242188 2.132813c5.792968 3.839844 13.324218 3.839844 19.117187 0l6.484375-4.265625c5.765625-3.925781 13.347656-3.925781 19.113281 0l6.488281 4.265625c5.792969 3.839844 13.320313 3.839844 19.113282 0l6.484375-4.265625c5.769531-3.925781 13.347656-3.925781 19.117187 0l3.242188 2.132812.339844.253907 2.902343 1.878906c5.792969 3.839844 13.320313 3.839844 19.113281 0l3.414063-2.21875 37.035156 60.671875c1.535157 2.707031 1.472657 6.035156-.160156 8.679688-1.636719 2.648437-4.582031 4.195312-7.691406 4.035156zm0 0" fill="#cad9fc"/><path d="m323.695312 238.933594h-161.109374c-3.109376.160156-6.058594-1.386719-7.691407-4.035156-1.632812-2.644532-1.695312-5.972657-.160156-8.679688l36.863281-60.332031.339844-.253907 3.242188 2.132813c5.792968 3.839844 13.324218 3.839844 19.117187 0l3.242187-2.132813 3.242188 2.132813c-11.386719-7.535156 30.503906-7.535156 19.113281 0l3.246094-2.132813 3.242187 2.132813c5.792969 3.839844 13.320313 3.839844 19.113282 0l6.484375-4.265625c-2.792969-1.851562 21.90625 2.417969 19.117187 4.265625l3.242188-2.132813.167968-.085937.171876.339844 36.863281 60.332031c1.535156 2.707031 1.472656 6.035156-.160157 8.679688-1.632812 2.648437-4.582031 4.195312-7.6875 4.035156zm0 0" fill="#e8edfc"/><path d="m372.675781 457.300781c.039063 11.660157-1.832031 23.25-5.546875 34.304688-2.265625 7.085937-8.863281 11.882812-16.300781 11.859375h-36.691406c-4.03125.015625-7.933594-1.40625-11.007813-4.007813-3.28125-2.652343-5.394531-6.480469-5.890625-10.667969-5.972656-49.835937-31.484375-66.558593-49.148437-84.308593 5.757812-5.339844 10.195312-11.941407 12.96875-19.285157.890625-2.246093 1.601562-4.554687 2.132812-6.914062 4.535156 4.382812 9.863282 7.859375 15.703125 10.242188.546875.277343 1.117188.507812 1.707031.683593 5.746094 2.199219 11.847657 3.328125 18.003907 3.328125h1.535156c5.804687 33.449219 28.671875 50.773438 53.335937 59.476563 6.261719 2.226562 12.679688 3.992187 19.199219 5.289062zm0 0" fill="#a4c2f7"/><path d="m352.960938 453.289062c0 11.660157-1.871094 23.242188-5.542969 34.304688-2.289063 7.070312-8.871094 11.859375-16.300781 11.863281h-27.988282c-3.28125-2.652343-5.394531-6.480469-5.890625-10.667969-5.972656-49.835937-31.484375-66.558593-49.148437-84.308593 5.757812-5.339844 10.195312-11.941407 12.96875-19.285157 11.496094 2.242188 23.1875 3.355469 34.902344 3.328126h1.535156c.003906.238281.0625.46875.171875.683593 7.507812 41.554688 24.574219 57.941407 55.292969 64.082031zm0 0" fill="#cad9fc"/><path d="m57.964844 332.800781c9.144531 15.859375 26.066406 25.625 44.375 25.597657 1.023437 0 1.960937-.082032 2.898437-.167969 5.65625 16.074219 18.925781 28.292969 35.414063 32.597656.660156.25 1.347656.421875 2.050781.511719 3.558594.789062 7.191406 1.191406 10.835937 1.195312 4.285157-.042968 8.550782-.621094 12.691407-1.714844-16.476563-4.308593-29.738281-16.523437-35.390625-32.589843-.9375.085937-1.878906.167969-2.902344.167969-18.304688.027343-35.230469-9.738282-44.371094-25.597657-23.84375-.800781-43.976562-17.960937-48.546875-41.375-4.566406-23.414062 7.636719-46.882812 29.429688-56.589843-3.152344-6.726563-4.785157-14.070313-4.777344-21.503907.023437-21.972656 14.070313-41.476562 34.902344-48.46875v-.085937c5.253906-1.753906 10.757812-2.648438 16.296875-2.644532 2.859375.007813 5.710937.238282 8.535156.683594v-.683594c.03125-23.316406 15.820312-43.667968 38.398438-49.492187h.011718c-4.179687-1.117187-8.484375-1.691406-12.8125-1.707031-.539062-.015625-1.082031.015625-1.621094.085937-3.777343.058594-7.535156.605469-11.175781 1.621094-22.582031 5.824219-38.371093 26.175781-38.402343 49.492187v.683594c-2.820313-.445312-5.675782-.675781-8.53125-.683594-5.542969-.003906-11.046876.890626-16.300782 2.644532v.085937c-20.832031 6.992188-34.878906 26.496094-34.902344 48.46875-.007812 7.433594 1.625 14.777344 4.78125 21.503907-21.792968 9.707031-34 33.175781-29.429687 56.589843 4.566406 23.414063 24.699219 40.574219 48.542969 41.375zm0 0" fill="#fff"/><path d="m307.140625 69.050781v.023438c.46875.078125.9375.175781 1.402344.269531-.46875-.09375-.929688-.210938-1.402344-.292969zm0 0" fill="#fff"/><path d="m213.273438 85.332031c-4.316407.015625-8.617188.558594-12.800782 1.621094-13.308594 3.480469-24.667968 12.152344-31.535156 24.070313l.046875-.003907c.535156-.070312 1.078125-.101562 1.621094-.085937 7.433593-.007813 14.773437 1.621094 21.503906 4.777344" fill="#fff"/><path d="m417.167969 460.015625c-6.496094-.582031-12.953125-1.523437-19.34375-2.820313.148437.03125.300781.074219.449219.105469.015624 1.074219-.09375 2.085938-.117188 3.144531 4.097656.222657 8.003906.355469 11.382812.355469 2.5625-.027343 5.117188-.289062 7.628907-.785156zm0 0" fill="#fff"/><path d="m379.84375 452.253906c-.484375-.171875-.96875-.34375-1.453125-.519531.230469.085937.453125.195313.683594.277344.257812.089843.511719.152343.769531.242187zm0 0" fill="#fff"/><path d="m385.4375 94.960938c-.890625-.179688-1.769531-.378907-2.679688-.511719.90625.132812 1.789063.332031 2.679688.511719zm0 0" fill="#fff"/><path d="m368.75 94.378906c2.199219-.347656 4.425781-.519531 6.65625-.511718-2.238281.003906-4.476562.15625-6.691406.457031zm0 0" fill="#fff"/><path d="m389.007812 455.109375c-.335937-.089844-.671874-.199219-1.007812-.292969.335938.09375.671875.203125 1.007812.292969zm0 0" fill="#fff"/><g fill="#428dff"><path d="m426.613281 261.824219c-2.859375.003906-5.53125-1.425781-7.117187-3.808594-6.53125-9.8125-16.820313-16.503906-28.441406-18.492187-4.648438-.78125-7.78125-5.183594-7-9.832032.785156-4.648437 5.1875-7.78125 9.832031-7 16.273437 2.777344 30.679687 12.136719 39.828125 25.875 1.738281 2.617188 1.898437 5.980469.414062 8.753906-1.484375 2.769532-4.371094 4.503907-7.515625 4.503907zm0 0"/><path d="m85.261719 261.824219c-3.140625 0-6.03125-1.734375-7.515625-4.503907-1.484375-2.773437-1.324219-6.136718.417968-8.753906 9.148438-13.738281 23.554688-23.097656 39.824219-25.875 4.648438-.78125 9.050781 2.351563 9.832031 7 .785157 4.648438-2.351562 9.050782-7 9.832032-11.617187 1.988281-21.90625 8.679687-28.441406 18.492187-1.582031 2.382813-4.253906 3.8125-7.117187 3.808594zm0 0"/><path d="m204.738281 324.265625c-21.328125-.039063-41.027343-11.410156-51.734375-29.855469-2.203125-4.0625-.773437-9.140625 3.226563-11.457031 3.996093-2.3125 9.113281-1.027344 11.539062 2.90625 11.785157 20.402344 37.871094 27.402344 58.289063 15.640625 4.0625-2.203125 9.140625-.773438 11.453125 3.222656 2.316406 4 1.03125 9.113282-2.902344 11.539063-9.082031 5.246093-19.382813 8.007812-29.871094 8.003906zm0 0"/><path d="m332.738281 332.800781c-16.992187-.015625-33.179687-7.253906-44.515625-19.910156-3.089844-3.515625-2.769531-8.867187.71875-11.988281 3.488282-3.125 8.839844-2.851563 11.996094.605468 11.792969 13.1875 30.5 17.726563 47.023438 11.414063 16.527343-6.3125 27.445312-22.164063 27.445312-39.855469 0-4.710937 3.820312-8.53125 8.53125-8.53125 4.714844 0 8.535156 3.820313 8.535156 8.53125-.039062 32.972656-26.761718 59.695313-59.734375 59.734375zm0 0"/><path d="m213.273438 426.667969c-19.390626-.007813-37.574219-9.425781-48.769532-25.257813-11.195312-15.828125-14.011718-36.109375-7.558594-54.394531 1.636719-4.355469 6.457032-6.601563 10.84375-5.046875 4.382813 1.554688 6.714844 6.335938 5.242188 10.75-4.601562 13.058594-2.582031 27.539062 5.414062 38.84375 7.996094 11.304688 20.980469 18.027344 34.828126 18.039062 2.382812 0 4.765624-.199218 7.117187-.59375 4.648437-.78125 9.050781 2.351563 9.832031 7 .78125 4.648438-2.351562 9.050782-7 9.832032-3.289062.550781-6.617187.828125-9.949218.828125zm0 0"/><path d="m383.9375 384c-32.972656-.039062-59.691406-26.761719-59.730469-59.734375 0-4.710937 3.820313-8.53125 8.53125-8.53125 4.714844 0 8.535157 3.820313 8.535157 8.53125-.027344 22.195313 16.972656 40.703125 39.089843 42.5625 22.117188 1.863281 41.96875-13.546875 45.652344-35.4375.777344-4.648437 5.175781-7.785156 9.824219-7.007813 4.648437.777344 7.785156 5.175782 7.007812 9.824219-4.769531 28.796875-29.71875 49.886719-58.910156 49.792969zm0 0"/><path d="m496.5625 238.933594c-3.050781.003906-5.871094-1.617188-7.398438-4.257813-7.640624-13.1875-21.71875-21.316406-36.957031-21.34375-4.714843 0-8.535156-3.820312-8.535156-8.53125 0-4.714843 3.820313-8.535156 8.535156-8.535156 21.328125.039063 41.035157 11.410156 51.742188 29.859375 1.527343 2.640625 1.527343 5.894531.003906 8.535156-1.523437 2.644532-4.339844 4.273438-7.390625 4.273438zm0 0"/><path d="m388.445312 153.601562c-3.363281 0-6.414062-1.980468-7.789062-5.054687-1.375-3.070313-.8125-6.664063 1.433594-9.171875 19.789062-22.121094 52.816406-26.355469 77.550781-9.949219 2.539063 1.6875 3.984375 4.601563 3.792969 7.644531-.195313 3.042969-1.996094 5.753907-4.726563 7.109376-2.730469 1.355468-5.976562 1.148437-8.519531-.539063-17.664062-11.710937-41.25-8.679687-55.378906 7.117187-1.617188 1.8125-3.933594 2.847657-6.363282 2.84375zm0 0"/><path d="m119.40625 183.707031c-2.101562.003907-4.128906-.769531-5.691406-2.175781-9.707032-8.589844-22.765625-12.363281-35.558594-10.273438-4.648438.78125-9.050781-2.351562-9.832031-7-.785157-4.648437 2.351562-9.050781 6.996093-9.832031 17.914063-2.929687 36.191407 2.355469 49.777344 14.390625 2.636719 2.359375 3.542969 6.101563 2.277344 9.40625-1.261719 3.304688-4.433594 5.484375-7.96875 5.484375zm0 0"/><path d="m59.671875 341.332031c-6.785156.007813-13.519531-1.144531-19.917969-3.40625-4.355468-1.632812-6.601562-6.457031-5.046875-10.839843 1.554688-4.386719 6.335938-6.71875 10.75-5.246094 19.390625 6.828125 40.890625-1.117188 51.179688-18.914063 2.429687-3.933593 7.542969-5.21875 11.539062-2.90625 4 2.316407 5.429688 7.394531 3.226563 11.457031-10.703125 18.445313-30.402344 29.816407-51.730469 29.855469zm0 0"/><path d="m409.539062 469.332031c-31.488281 0-106-7.335937-117.785156-75.363281-.417968-2.4375.238282-4.9375 1.800782-6.851562 1.5625-1.917969 3.878906-3.0625 6.351562-3.140626 17.324219-.515624 32.597656-11.515624 38.574219-27.785156 1.03125-2.773437 3.425781-4.8125 6.328125-5.394531 2.902344-.578125 5.898437.386719 7.914062 2.554687 8.636719 9.269532 20.945313 14.21875 33.597656 13.515626 12.648438-.707032 24.332032-6.996094 31.886719-17.167969 2.316407-3.074219 6.398438-4.226563 9.980469-2.816407 4.445312 1.78125 9.160156 2.78125 13.945312 2.960938 2.878907.101562 5.511719 1.652344 6.996094 4.125 18.675782 31.015625 21.667969 62.457031 8.214844 86.265625-9.546875 17.585937-27.796875 28.695313-47.804688 29.097656zm-98.890624-69.480469c13.773437 45.355469 67.089843 52.414063 98.890624 52.414063 13.855469-.402344 26.429688-8.199219 32.949219-20.433594 9.835938-17.398437 7.679688-41.023437-5.808593-65.316406-2.980469-.359375-5.929688-.941406-8.824219-1.75-11.277344 12.308594-27.222657 19.292969-43.917969 19.234375-12.441406-.019531-24.574219-3.910156-34.707031-11.132812-8.589844 13.929687-22.550781 23.695312-38.582031 26.984374zm0 0"/><path d="m290.070312 51.199219h-68.265624c-14.136719 0-25.597657-11.460938-25.597657-25.597657 0-14.140624 11.460938-25.601562 25.597657-25.601562h68.265624c14.140626 0 25.601563 11.460938 25.601563 25.601562 0 14.136719-11.460937 25.597657-25.601563 25.597657zm-68.265624-34.132813c-4.710938 0-8.53125 3.820313-8.53125 8.535156 0 4.710938 3.820312 8.53125 8.53125 8.53125h68.265624c4.714844 0 8.535157-3.820312 8.535157-8.53125 0-4.714843-3.820313-8.535156-8.535157-8.535156zm0 0"/><path d="m349.253906 247.464844h-186.632812c-6.355469.035156-12.242188-3.335938-15.425782-8.839844-3-5.210938-2.929687-11.644531.195313-16.78125l70.664063-115.703125c2.453124-4.015625 3.75-8.632813 3.75-13.339844v-50.132812c0-4.714844 3.820312-8.535157 8.535156-8.535157h51.199218c4.710938 0 8.53125 3.820313 8.53125 8.535157v50.132812c.003907 4.710938 1.304688 9.328125 3.757813 13.351563l70.625 115.613281.039063.078125c3.121093 5.136719 3.195312 11.570312.191406 16.78125-3.183594 5.503906-9.070313 8.878906-15.429688 8.839844zm-110.382812-196.265625v41.601562c.003906 7.84375-2.160156 15.539063-6.25 22.234375l-70.625 115.632813 187.609375-.453125-70.351563-115.171875c-4.085937-6.699219-6.25-14.394531-6.25-22.242188v-41.601562zm0 0"/><path d="m349.253906 247.464844h-186.632812c-6.355469.035156-12.242188-3.335938-15.425782-8.839844-3-5.210938-2.929687-11.644531.195313-16.78125l37.117187-60.777344c1.210938-1.980468 3.175782-3.382812 5.4375-3.882812 2.265626-.503906 4.640626-.058594 6.570313 1.226562l3.382813 2.246094c2.921874 1.972656 6.746093 1.972656 9.667968.011719l6.476563-4.308594c8.65625-5.785156 19.941406-5.785156 28.597656 0l6.46875 4.308594c2.917969 1.964843 6.738281 1.964843 9.65625 0l6.476563-4.308594c8.65625-5.785156 19.945312-5.785156 28.601562 0l6.464844 4.308594c2.917968 1.964843 6.738281 1.964843 9.660156 0l3.398438-2.257813c1.933593-1.285156 4.304687-1.730468 6.570312-1.226562 2.265625.5 4.230469 1.902344 5.4375 3.882812l37.074219 60.699219.042969.078125c3.121093 5.136719 3.195312 11.570312.191406 16.78125-3.183594 5.503906-9.070313 8.878906-15.429688 8.839844zm-154.574218-70.308594-32.683594 53.503906 187.609375-.449218-32.398438-53.054688c-7.988281 3.410156-17.160156 2.546875-24.375-2.289062l-6.457031-4.308594c-2.925781-1.949219-6.738281-1.949219-9.667969 0l-6.464843 4.308594c-8.65625 5.800781-19.957032 5.800781-28.609376 0l-6.457031-4.308594c-2.929687-1.949219-6.742187-1.949219-9.667969 0l-6.464843 4.308594c-7.210938 4.835937-16.378907 5.695312-24.363281 2.289062zm0 0"/><path d="m350.863281 512h-36.691406c-12.851563.074219-23.738281-9.453125-25.367187-22.199219-2.6875-28.171875-16.703126-54.042969-38.835938-71.679687-2.757812-2.574219-5.429688-5.085938-7.957031-7.609375-1.640625-1.644531-2.539063-3.882813-2.492188-6.203125.046875-2.320313 1.039063-4.523438 2.742188-6.097656 6.3125-5.832032 10.707031-13.441407 12.609375-21.824219.683594-2.992188 2.921875-5.386719 5.859375-6.269531 2.9375-.886719 6.125-.125 8.347656 1.996093 7.9375 7.625 18.519531 11.886719 29.527344 11.886719l1.367187-.015625c4.222656-.101563 7.882813 2.910156 8.597656 7.074219 5.324219 30.722656 27.464844 50.199218 65.816407 57.882812 3.96875.792969 6.835937 4.261719 6.859375 8.308594 0 12.566406-2.023438 25.050781-5.984375 36.976562v.007813c-3.410157 10.59375-13.269531 17.769531-24.398438 17.765625zm-90.867187-107.875 1.644531 1.542969c25.136719 20.324219 41.035156 49.910156 44.117187 82.089843.585938 4.175782 4.199219 7.253907 8.414063 7.175782h36.695313c3.726562-.007813 7.027343-2.421875 8.164062-5.972656 2.65625-8.054688 4.316406-16.402344 4.941406-24.859376-38.425781-9.507812-62.699218-31.214843-70.765625-63.273437-9.160156-.828125-18.003906-3.769531-25.832031-8.59375-1.976562 4.242187-4.453125 8.234375-7.378906 11.890625zm0 0"/></g><path d="m57.699219 341.304688c-27.789063-.957032-51.25-20.957032-56.582031-48.25-5.335938-27.289063 8.859374-54.65625 34.246093-66.003907l6.972657 15.574219c-6.808594 3.085938-12.707032 7.871094-17.125 13.898438-9.285157 12.761718-10.761719 29.605468-3.847657 43.789062 6.917969 14.183594 21.101563 23.386719 36.871094 23.933594zm0 0" fill="#fff"/><path d="m20.675781 314.726562c-1.816406 1.621094-2.8125 3.972657-2.710937 6.402344.097656 2.433594 1.28125 4.691406 3.222656 6.160156 10.273438 8.601563 23.121094 13.53125 36.511719 14.015626l.53125-17.058594c-9.546875-.363282-18.707031-3.878906-26.039063-10-3.484375-2.542969-8.261718-2.34375-11.515625.480468zm0 0" fill="#428dff"/><path d="m42.335938 242.625-6.972657-15.574219c-9.515625 4.292969-17.761719 10.980469-23.933593 19.40625-1.96875 2.671875-3.703126 5.511719-5.179688 8.484375-1.214844 2.105469-1.421875 4.644532-.5625 6.914063.859375 2.273437 2.695312 4.039062 5 4.8125 4.117188 1.300781 8.589844-.386719 10.820312-4.082031 1.050782-2.128907 2.289063-4.15625 3.699219-6.058594 4.421875-6.03125 10.320313-10.816406 17.128907-13.902344zm0 0" fill="#428dff"/><path d="m1.175781 293.699219c.539063 2.496093 2.058594 4.671875 4.214844 6.035156l1.589844.652344c.5625.171875 1.140625.257812 1.726562.253906.539063.078125 1.085938.0625 1.621094-.042969.558594-.109375 1.109375-.257812 1.648437-.449218 2.046876-.859376 3.769532-2.347657 4.914063-4.25.457031-.898438.796875-1.855469 1.015625-2.839844.511719-2.933594-.726562-5.894532-3.175781-7.585938-.878907-.628906-1.851563-1.117187-2.882813-1.4375-1.054687-.367187-2.164062-.542968-3.277344-.519531-2.308593.097656-4.464843 1.1875-5.914062 2.984375-1.417969 2.113281-1.949219 4.699219-1.480469 7.199219zm0 0" fill="#428dff"/><path d="m213.273438 426.667969c-19.949219.0625-38.597657-9.886719-49.652344-26.492188-26.414063 4.59375-52.640625-9.042969-64.046875-33.308593-20.339844-.976563-38.792969-12.210938-49.003907-29.824219-2.355468-4.082031-.957031-9.304688 3.125-11.660157 4.085938-2.355468 9.304688-.957031 11.660157 3.125 7.648437 13.195313 21.734375 21.332032 36.984375 21.359376.757812 0 1.449218-.074219 2.140625-.132813 3.890625-.359375 7.527343 1.980469 8.808593 5.675781 6 17.097656 22.128907 28.554688 40.25 28.589844 4.050782-.027344 8.082032-.609375 11.972657-1.734375 3.898437-1.101563 8.035156.703125 9.875 4.308594 8.246093 15.898437 25.542969 24.957031 43.304687 22.679687 17.765625-2.277344 32.214844-15.40625 36.179688-32.871094.683594-2.992187 2.921875-5.386718 5.859375-6.269531 2.941406-.886719 6.128906-.125 8.351562 1.996094 10.34375 9.957031 25.011719 14.023437 39.007813 10.8125s25.425781-13.269531 30.390625-26.742187c1.035156-2.769532 3.433593-4.804688 6.332031-5.382813 2.898438-.574219 5.890625.390625 7.910156 2.550781 8.636719 9.269532 20.945313 14.222656 33.597656 13.519532 12.648438-.707032 24.332032-6.996094 31.886719-17.167969 2.316407-3.070313 6.394531-4.222657 9.972657-2.816407 4.925781 1.980469 10.183593 2.992188 15.492187 2.984376 23.554687-.027344 42.640625-19.113282 42.667969-42.667969-.035156-5.253907-1.007813-10.457031-2.875-15.367188-1.078125-2.875-.523438-6.105469 1.449218-8.457031 14.863282-17.738281 12.867188-44.089844-4.492187-59.390625-2.097656-1.859375-3.152344-4.628906-2.816406-7.410156.132812-1.074219.199219-2.15625.199219-3.242188.019531-8.546875-2.53125-16.902343-7.324219-23.976562-1.117188-1.648438-1.621094-3.636719-1.425781-5.617188.152343-1.503906.21875-3.023437.21875-4.539062-.027344-23.550781-19.117188-42.636719-42.667969-42.664063-.816407 0-1.632813.015625-2.324219.066406-3.816406.214844-7.324219-2.101562-8.625-5.695312-4.371094-12.445312-14.253906-22.167969-26.773438-26.332031-12.519531-4.160157-26.257812-2.289063-37.210937 5.066406-2.191406 1.480469-4.945313 1.859375-7.453125 1.027344s-4.492188-2.78125-5.363281-5.277344c-7.066407-20.113281-27.890625-31.933594-48.785157-27.683594v15.09375c.003907 4.710938 1.304688 9.328125 3.757813 13.351563l70.625 115.613281c3.148437 5.152344 3.238281 11.609375.238281 16.851563-3.179687 5.507812-9.074218 8.886718-15.4375 8.847656h-186.632812c-6.359375.039062-12.25-3.339844-15.433594-8.847656-2.992188-5.214844-2.914062-11.640626.203125-16.785157l70.664063-115.691406c2.109374-3.457031 3.367187-7.363281 3.675781-11.398437-19.578125-3.882813-39.242188 6.257812-47.433594 24.457031-.9375 2.089843-2.671875 3.714843-4.816406 4.515625-2.144531.804687-4.523438.707031-6.589844-.273438-5.597656-2.625-11.703125-3.980468-17.886719-3.976562-23.550781.03125-42.636718 19.117187-42.664062 42.667968 0 2.59375-1.082032 5.074219-2.988282 6.835938-1.851562 1.710938-4.347656 2.550781-6.859374 2.300781-2.386719-.386719-4.800782-.585937-7.21875-.601562-23.554688.027343-42.640626 19.113281-42.667969 42.664062-.011719 6.183594 1.347656 12.296875 3.976562 17.894531 1.289063 2.761719 1.003907 6.003907-.742187 8.5-1.75 2.496094-4.699219 3.875-7.734375 3.609376-3.039063-.265626-5.703125-2.132813-6.992188-4.894532-3.683593-7.855468-5.589843-16.429687-5.574219-25.109375.039063-32.972656 26.761719-59.691406 59.734376-59.730469.222656 0 .457031 0 .679687.007813 4.273437-29.347656 29.398437-51.132813 59.050781-51.210937 5.945313-.007813 11.859375.882812 17.535156 2.648437 14.75-23.894531 44.195313-34.222656 70.640626-24.78125 3.410156 1.203125 5.691406 4.425781 5.691406 8.042969v4.492187c.003906 7.84375-2.160156 15.539063-6.25 22.234375l-70.625 115.632813 187.257812-.269531-70-115.355469c-4.085937-6.699219-6.25-14.394531-6.25-22.242188v-21.519531c.003906-3.609375 2.273438-6.828125 5.675782-8.039062 27.523437-9.90625 58.160156 1.710937 72.191406 27.375 29.683594-13.394532 64.625-.527344 78.535156 28.917968 31.847656 1.53125 56.894531 27.777344 56.933594 59.664063 0 1.058593-.027344 2.109375-.074219 3.167969 5.648437 9.339843 8.628906 20.050781 8.605469 30.964843 0 .292969 0 .578125-.007813.859375 20.210938 20.601563 22.78125 52.710938 6.109375 76.265625 5.320313 18.050781 1.808594 37.550781-9.472656 52.609375s-29.011719 23.90625-47.828125 23.867188c-5.347656.003906-10.667969-.730469-15.816406-2.175782-11.273438 12.3125-27.222657 19.300782-43.917969 19.242188-12.449219-.019531-24.589844-3.914062-34.722656-11.148438-17.269532 27.914063-53.867188 36.585938-81.824219 19.390626-9.757813 21.066406-30.902344 34.515624-54.117187 34.425781zm0 0" fill="#428dff"/><path d="m341.28125 34.132812c-3.960938.003907-7.402344-2.714843-8.316406-6.566406-.910156-3.855468.949218-7.828125 4.492187-9.597656l17.066407-8.535156c4.214843-2.109375 9.339843-.398438 11.449218 3.816406 2.105469 4.214844.398438 9.339844-3.816406 11.449219l-17.066406 8.535156c-1.183594.589844-2.488282.898437-3.808594.898437zm0 0" fill="#428dff"/><path d="m366.871094 59.734375h-8.53125c-4.714844 0-8.535156-3.820313-8.535156-8.535156 0-4.710938 3.820312-8.53125 8.535156-8.53125h8.53125c4.714844 0 8.535156 3.820312 8.535156 8.53125 0 4.714843-3.820312 8.535156-8.535156 8.535156zm0 0" fill="#428dff"/><path d="m170.597656 34.132812c-1.324218 0-2.625-.308593-3.808594-.898437l-17.066406-8.535156c-4.214844-2.109375-5.925781-7.234375-3.816406-11.449219s7.234375-5.925781 11.449219-3.816406l17.066406 8.535156c3.542969 1.769531 5.402344 5.742188 4.488281 9.597656-.910156 3.851563-4.351562 6.570313-8.3125 6.566406zm0 0" fill="#428dff"/><path d="m153.539062 59.734375h-8.535156c-4.710937 0-8.53125-3.820313-8.53125-8.535156 0-4.710938 3.820313-8.53125 8.53125-8.53125h8.535156c4.710938 0 8.53125 3.820312 8.53125 8.53125 0 4.714843-3.820312 8.535156-8.53125 8.535156zm0 0" fill="#428dff"/></svg>