<?xml version="1.0" encoding="utf-8"?>
<!-- Generator: Adobe Illustrator 22.1.0, SVG Export Plug-In . SVG Version: 6.00 Build 0)  -->
<svg version="1.1"
	 id="Layer_1" xmlns:cc="http://creativecommons.org/ns#" xmlns:dc="http://purl.org/dc/elements/1.1/" xmlns:rdf="http://www.w3.org/1999/02/22-rdf-syntax-ns#" xmlns:svg="http://www.w3.org/2000/svg"
	 xmlns="http://www.w3.org/2000/svg" xmlns:xlink="http://www.w3.org/1999/xlink" x="0px" y="0px" viewBox="0 0 100 76.5"
	 style="enable-background:new 0 0 100 76.5;" xml:space="preserve">
<g transform="translate(0,-952.36216)">
	<path d="M61.5,955c-0.5,0-1,0.3-1.2,0.7l-16.7,0.6c-0.3-0.3-0.6-0.5-1-0.5c-0.6,0-1.1,0.3-1.3,0.9l-21.8,10
		c-0.2-0.1-0.3-0.1-0.5-0.1c-0.7,0-1.3,0.6-1.4,1.3l-6.2,6.6l-1.2,1.2c-0.1,0-0.2,0-0.3,0c-0.8,0-1.4,0.6-1.4,1.4v0
		c0,0.4,0.2,0.7,0.4,1l-3.3,11.8c-0.4,0.2-0.7,0.7-0.7,1.2c0,0.7,0.5,1.2,1.1,1.3l5,12c-0.2,0.2-0.3,0.5-0.3,0.9
		c0,0.8,0.6,1.4,1.4,1.4c0,0,0,0,0,0c0.4,0,0.8-0.2,1.1-0.5l11.7,2.7c0.1,0.7,0.7,1.2,1.4,1.2c0.4,0,0.8-0.2,1.1-0.6l8.5,2.3
		c0.2,0.5,0.7,0.8,1.2,0.8c0.8,0,1.4-0.6,1.4-1.4c0,0,0-0.1,0-0.1l3.8-3.3c0.2,0.1,0.4,0.2,0.6,0.2c0.4,0,0.9-0.2,1.1-0.6l4.6,1.5
		c0.2,0.6,0.7,1,1.3,1c0.1,0,0.2,0,0.3,0l8.9,9.2c0,0.1,0,0.2,0,0.2c0,0.8,0.6,1.4,1.4,1.4c0.1,0,0.2,0,0.3,0l4.3,3.7
		c0,0.1,0,0.2,0,0.3c0,0.8,0.6,1.4,1.4,1.4c0.7,0,1.3-0.6,1.4-1.3l3.9-0.8c0.3,0.3,0.7,0.5,1.1,0.5c0.8,0,1.4-0.6,1.4-1.4
		c0,0,0,0,0,0c0-0.8-0.6-1.4-1.4-1.4c-0.2,0-0.3,0-0.5,0.1l-2.4-5.1c0.1-0.2,0.2-0.5,0.2-0.8c0-0.1,0-0.2,0-0.3l1.5-2.3
		c0.1,0,0.3,0.1,0.4,0.1c0.5,0,0.9-0.2,1.1-0.6l5,0.4c0.2,0.5,0.7,0.8,1.3,0.8c0.8,0,1.4-0.6,1.4-1.4c0,0,0-0.1,0-0.1l2.8-4.4
		c0.3-0.1,0.6-0.2,0.8-0.4h2.6c0.2,0.5,0.7,0.8,1.3,0.8c0.8,0,1.4-0.6,1.4-1.4c0-0.4-0.2-0.8-0.5-1l4.8-7.2c0.7-0.1,1.2-0.7,1.2-1.4
		c0-0.6-0.4-1.2-1-1.3l-1.4-8.9c0.4-0.2,0.7-0.7,0.7-1.2c0-0.8-0.6-1.4-1.4-1.4c-0.1,0-0.1,0-0.2,0l-9.1-15.9
		c0.1-0.2,0.2-0.5,0.2-0.7c0-0.8-0.6-1.4-1.4-1.4c-0.2,0-0.5,0.1-0.7,0.2l-18-10.9C62.7,955.4,62.1,955,61.5,955L61.5,955z
		 M60.1,956.7c0.1,0.5,0.6,0.9,1.2,1l2.1,9.1l-19.4-9.4c0,0,0-0.1,0-0.1L60.1,956.7L60.1,956.7z M62.6,957.1l16.7,10.2l-13.6,0.1
		c-0.2-0.5-0.7-0.8-1.2-0.8c-0.1,0-0.1,0-0.2,0l-2.1-9.2C62.4,957.4,62.5,957.3,62.6,957.1L62.6,957.1z M41.3,957.8
		c0.1,0.2,0.2,0.3,0.3,0.4l-7.1,11c-0.1,0-0.3-0.1-0.4-0.1c-0.5,0-1,0.3-1.2,0.7l-12.5-2.2c0-0.1,0-0.1-0.1-0.2L41.3,957.8
		L41.3,957.8z M43.5,958.3l18.2,8.8L47,968.7C47,968.7,43.5,958.3,43.5,958.3z M42.5,958.8l3.5,10.1L35.4,970c0,0,0-0.1,0-0.1
		L42.5,958.8L42.5,958.8z M63,968l-13.1,7.9c-0.1-0.1-0.2-0.1-0.4-0.2l-2.1-6C47.4,969.7,63,968,63,968z M80.1,968.3
		c0,0.3,0.1,0.5,0.3,0.7l-2.8,7.3l-11.8-7.9c0,0,0,0,0,0L80.1,968.3L80.1,968.3z M20.2,968.7l12.6,2.2c0,0.1,0.1,0.3,0.2,0.4
		l-10.2,10.5c0,0-0.1,0-0.1,0c-0.1,0-0.2,0-0.3,0c-0.1-0.4-0.1-0.8-0.2-1.3c-0.3-1.5-0.7-3.5-1.1-5.4c-0.5-2.5-1-4.6-1.2-6.1
		C20,969,20.1,968.9,20.2,968.7L20.2,968.7z M63.2,969.1l-6.1,18.6c-0.1,0-0.3,0.1-0.4,0.2l-6.6-9.8c0.2-0.3,0.4-0.6,0.4-1
		c0-0.1,0-0.2,0-0.3L63.2,969.1L63.2,969.1z M65.2,969.2l12.1,8l-3.6,9.5c0,0,0,0,0,0c-0.2,0-0.3,0-0.5,0.1L65.2,969.2
		C65.2,969.2,65.2,969.2,65.2,969.2L65.2,969.2z M18.5,969.3c0.1,0,0.2,0.1,0.3,0.1c0.3,1.5,0.7,3.5,1.2,6c0.4,1.9,0.8,3.9,1.1,5.4
		c0.1,0.4,0.1,0.7,0.2,1.1l-10.1-5c0-0.1-0.1-0.3-0.2-0.4l1.1-1.1L18.5,969.3L18.5,969.3z M81.8,969.5l8.8,15.4l-12.1-8l2.8-7.4
		c0,0,0.1,0,0.1,0C81.6,969.5,81.7,969.5,81.8,969.5L81.8,969.5z M64.2,969.5l8.2,18.1l-13.6,0.9c-0.1-0.3-0.3-0.5-0.6-0.7
		L64.2,969.5z M46.3,969.9l2.1,6c-0.2,0.1-0.3,0.2-0.4,0.3L35.8,971L46.3,969.9z M34.9,971.7l12.8,5.5l-7.2,4
		c-0.2-0.2-0.6-0.3-0.9-0.3c0,0-0.1,0-0.1,0L34.9,971.7C34.9,971.7,34.9,971.7,34.9,971.7L34.9,971.7z M33.8,972l4.8,9.3
		c-0.2,0.3-0.4,0.6-0.4,0.9c0,0.3,0.1,0.6,0.3,0.8l-6.7,10.7c0,0-0.1,0-0.1,0c-0.2,0-0.4,0-0.5,0.1l-7.5-9.7
		c0.2-0.3,0.3-0.6,0.3-0.9c0-0.3-0.1-0.6-0.3-0.9L33.8,972L33.8,972z M78.2,977.9l12.3,8.2l-15.8,1L78.2,977.9z M11.1,977.9l9.9,4.9
		L7.2,990c-0.1-0.1-0.3-0.2-0.4-0.2l3.2-11.3C10.4,978.5,10.8,978.2,11.1,977.9L11.1,977.9z M48.2,978.1c0.3,0.2,0.6,0.4,0.9,0.4
		c0,0,0,0,0,0l7,10.3c0,0.1,0,0.2,0,0.3c0,0.1,0,0.2,0,0.3l-4.7,7.1c-0.1,0-0.2,0-0.3,0L40.8,983c0.1-0.2,0.2-0.5,0.2-0.7
		c0-0.1,0-0.1,0-0.2L48.2,978.1L48.2,978.1z M40,983.6l10.3,13.5c0,0,0,0,0,0l-17.1-2.4c-0.1-0.2-0.2-0.4-0.3-0.6l6.6-10.6
		c0.1,0,0.1,0,0.2,0C39.7,983.6,39.8,983.6,40,983.6L40,983.6z M21.4,983.7l-5,10.9c-0.2,0.1-0.4,0.2-0.6,0.3l-8-4c0,0,0-0.1,0-0.1
		C7.7,990.9,21.4,983.7,21.4,983.7z M22,984.7l2.5,17l-6.7-5c0.1-0.2,0.1-0.4,0.1-0.6c0-0.5-0.2-0.9-0.7-1.2
		C17.4,994.8,22,984.7,22,984.7z M23.1,985.1l7.4,9.5c-0.1,0.2-0.1,0.4-0.1,0.5c0,0.7,0.5,1.3,1.2,1.4l4.7,13.6
		c-0.1,0.1-0.2,0.2-0.3,0.3l-10.3-7.8L23.1,985.1L23.1,985.1z M90.8,987l-3,7.6L75,988.2c0,0,0-0.1,0-0.1c0,0,0-0.1,0-0.1L90.8,987
		L90.8,987z M91.6,987.7l1.3,8.7c-0.2,0.1-0.4,0.3-0.5,0.5l-3.7-1.9L91.6,987.7L91.6,987.7z M72.2,988.7l-1.8,11.7l-11.7-10.8
		c0,0,0,0,0,0L72.2,988.7L72.2,988.7z M73.1,989.4c0.2,0.1,0.3,0.1,0.5,0.1c0.1,0,0.3,0,0.4-0.1l7.5,9.9l-9.7,1.6
		c-0.1-0.1-0.3-0.2-0.4-0.3L73.1,989.4L73.1,989.4z M75.4,989.6l12,6l-1.2,3l-3.5,0.6L75.4,989.6z M57.9,990.3l11.8,10.8
		c-0.2,0.2-0.2,0.5-0.2,0.8c0,0,0,0,0,0l-9.4,5.7c-0.2-0.1-0.4-0.3-0.6-0.3l-1.9-16.9C57.7,990.3,57.8,990.3,57.9,990.3L57.9,990.3z
		 M56.6,990.4l1.8,16.5l-5.8-8.4c0.1-0.2,0.2-0.5,0.2-0.7c0-0.4-0.1-0.7-0.4-1L56.6,990.4z M7.4,992l7.9,3.9c0,0,0,0,0,0.1
		c0,0.3,0.1,0.6,0.3,0.9l-3.6,7.1c0,0-0.1,0-0.1,0l-4.8-11.7C7.2,992.2,7.3,992.1,7.4,992L7.4,992z M33,995.8l16.9,2.4l-6.6,7.1
		c-0.2-0.1-0.3-0.1-0.5-0.1c-0.3,0-0.7,0.1-0.9,0.3L33,995.8C33,995.8,33,995.8,33,995.8L33,995.8z M88.3,996l3.4,1.7l-4.3,0.7
		C87.4,998.4,88.3,996,88.3,996z M32.9,997.3l8.5,9.3c0,0,0,0,0,0c0,0.1,0,0.3,0.1,0.4l-3.6,3.2c-0.2-0.1-0.4-0.2-0.6-0.3
		L32.9,997.3L32.9,997.3z M17.1,997.3l7.7,5.8l0.7,4.4c-0.1,0.1-0.2,0.2-0.3,0.3l-11.6-2.7c0-0.3-0.2-0.6-0.5-0.9l3.5-6.9
		c0,0,0.1,0,0.1,0C16.8,997.4,17,997.3,17.1,997.3L17.1,997.3z M92.7,998.6C92.7,998.6,92.7,998.6,92.7,998.6l-4.7,7.2
		c-0.1,0-0.2,0-0.3,0.1l-2.1-2.8l1.4-3.5L92.7,998.6L92.7,998.6z M50.5,999.1l-1.3,8.2c-0.2,0.1-0.4,0.3-0.5,0.5l-4.4-1.5
		c0-0.1-0.1-0.3-0.1-0.4L50.5,999.1L50.5,999.1z M51.7,999.2l6.1,8.8l-6.7,0.2c-0.1-0.5-0.5-0.9-0.9-1l1.3-8
		C51.6,999.2,51.7,999.2,51.7,999.2L51.7,999.2z M85.8,999.7l-0.9,2.3l-1.5-2L85.8,999.7z M82.2,1000.3l2.2,2.9l-0.9,2.3
		c-0.1,0-0.2,0-0.3,0c-0.4,0-0.8,0.2-1,0.5l-9.1-4.2L82.2,1000.3L82.2,1000.3z M72.4,1002.6l9.4,4.3c0,0.4,0.2,0.8,0.5,1l-2.3,3.7
		c-0.2-0.2-0.5-0.2-0.8-0.2c-0.1,0-0.1,0-0.2,0L72.4,1002.6L72.4,1002.6z M69.9,1002.9c0.2,0.2,0.4,0.3,0.6,0.3l0.7,7.7
		c-0.4,0.3-0.6,0.7-0.6,1.1c0,0.2,0.1,0.4,0.2,0.6l-1.4,2.1c-0.2-0.1-0.4-0.2-0.7-0.2c-0.3,0-0.5,0.1-0.8,0.2l-7.4-5.8
		c0.1-0.1,0.1-0.3,0.1-0.5c0,0,0-0.1,0-0.1L69.9,1002.9L69.9,1002.9z M71.5,1003.1l6.7,8.8c-0.1,0.1-0.1,0.2-0.2,0.3l-4.7-0.4
		c-0.1-0.6-0.6-1-1.1-1.1L71.5,1003.1C71.5,1003.1,71.5,1003.1,71.5,1003.1L71.5,1003.1z M26,1004l8.3,6.3l-6.7-1.9
		c-0.1-0.6-0.6-1.1-1.2-1.2C26.5,1007.3,26,1004,26,1004z M85.1,1004.1l1.8,2.4c0,0.1-0.1,0.1-0.1,0.2h-2.3c0-0.2-0.1-0.4-0.2-0.6
		L85.1,1004.1L85.1,1004.1z M57.8,1009c0.1,0.5,0.6,0.9,1.1,1l0.5,8.1l-8.5-8.8c0,0,0,0,0,0L57.8,1009L57.8,1009z M60,1010.1
		l7.3,5.7c0,0.1,0,0.2,0,0.3c0,0,0,0.1,0,0.1l-5.8,2.3c-0.2-0.3-0.5-0.4-0.9-0.5L60,1010.1L60,1010.1z M67.7,1017
		c0.1,0,0.1,0.1,0.2,0.1l-0.9,2.5c-0.4,0-0.8,0.2-1,0.6l-4.1-0.8c0,0,0-0.1,0-0.1L67.7,1017L67.7,1017z M68.9,1017.3l2.1,4.5l-2.7-1
		c0-0.4-0.2-0.7-0.5-0.9L68.9,1017.3C68.9,1017.3,68.9,1017.3,68.9,1017.3L68.9,1017.3z M62.2,1020.6l3.5,0.6
		c0.1,0.4,0.2,0.7,0.5,0.9l-0.2,1.2c-0.2,0-0.3,0.1-0.5,0.2L62.2,1020.6L62.2,1020.6z M68.1,1021.9l3,1.1l-3.8,0.8
		c-0.1-0.1-0.2-0.2-0.3-0.2l0.2-1.2C67.5,1022.3,67.8,1022.2,68.1,1021.9L68.1,1021.9z"/>
</g>
</svg>
